<?xml version="1.0" encoding="UTF-8" standalone="no"?>
<!-- Created with Inkscape (http://www.inkscape.org/) -->

<svg
   width="6.3499532mm"
   height="6.350049mm"
   viewBox="0 0 6.3499532 6.350049"
   version="1.1"
   id="svg1"
   inkscape:version="1.4.2 (f4327f4, 2025-05-13)"
   sodipodi:docname="LogoRidotto_White.svg"
   xmlns:inkscape="http://www.inkscape.org/namespaces/inkscape"
   xmlns:sodipodi="http://sodipodi.sourceforge.net/DTD/sodipodi-0.dtd"
   xmlns="http://www.w3.org/2000/svg"
   xmlns:svg="http://www.w3.org/2000/svg">
  <sodipodi:namedview
     id="namedview1"
     pagecolor="#ffffff"
     bordercolor="#000000"
     borderopacity="0.25"
     inkscape:showpageshadow="2"
     inkscape:pageopacity="0.0"
     inkscape:pagecheckerboard="0"
     inkscape:deskcolor="#d1d1d1"
     inkscape:document-units="mm"
     inkscape:zoom="11.01807"
     inkscape:cx="-17.42592"
     inkscape:cy="10.11974"
     inkscape:window-width="2400"
     inkscape:window-height="1261"
     inkscape:window-x="-9"
     inkscape:window-y="-9"
     inkscape:window-maximized="1"
     inkscape:current-layer="layer1" />
  <defs
     id="defs1" />
  <g
     inkscape:label="Livello 1"
     inkscape:groupmode="layer"
     id="layer1"
     transform="translate(-68.887287,-162.59217)">
    <g
       id="g1">
      <path
         d="m 64.26012,169.04701 c 0.33549,-0.11932 0.508,-0.72919 0.36433,-1.41208 -0.13732,-0.65272 -0.54557,-1.08849 -1.17395,-0.86492 -0.54504,0.19368 -0.65987,0.81412 -0.36433,1.41182 0.29765,0.60219 0.83846,0.98451 1.17395,0.86518 z"
         id="path28-41-8-51"
         style="fill:#484340;fill-opacity:1;stroke-width:0.264583" />
      <path
         d="m 61.53624,169.06236 c -0.35005,-0.0664 -0.6141,-0.64241 -0.57732,-1.33932 0.0354,-0.66596 0.37174,-1.1594 1.02711,-1.03505 0.56859,0.10769 0.77734,0.703 0.57706,1.33906 -0.20135,0.64055 -0.67707,1.10172 -1.02685,1.03531 z"
         id="path27-1-2-7"
         style="fill:#484340;fill-opacity:1;stroke-width:0.264583" />
      <path
         d="m 65.67511,167.13302 c 0.27623,-0.19288 0.28046,-0.79269 -0.0217,-1.3798 -0.28892,-0.56092 -0.77073,-0.85619 -1.28799,-0.49477 -0.44873,0.31353 -0.39793,0.90831 0.0217,1.3798 0.42228,0.4744 1.01177,0.68765 1.288,0.49477 z"
         id="path26-38-4-11"
         style="fill:#484340;fill-opacity:1;stroke-width:0.264583" />
      <path
         d="m 59.86275,167.31981 c -0.31433,-0.14261 -0.43101,-0.74612 -0.23654,-1.39435 0.18627,-0.61939 0.61648,-1.007 1.20544,-0.73977 0.51091,0.23204 0.57097,0.84084 0.23654,1.39435 -0.33708,0.55748 -0.89085,0.88265 -1.20544,0.73977 z"
         id="path25-7-5-5"
         style="fill:#484340;fill-opacity:1;stroke-width:0.264583" />
      <path
         d="m 62.7184,166.15829 c -0.88107,0 -1.86717,-1.62004 -2.0193,-2.3061 -0.15214,-0.68633 0.26352,-1.25122 0.9218,-1.08797 0.28893,0.0717 0.86043,0.34581 1.08532,0.34158 0.24474,-0.004 0.62945,-0.2212 0.94906,-0.33126 0.703,-0.24236 1.24804,0.33946 1.06098,1.07765 -0.20478,0.80724 -1.18533,2.3061 -1.99786,2.3061 z"
         id="path1-4-5-2"
         style="fill:#2f5d50;fill-opacity:1;stroke:none;stroke-width:0;stroke-dasharray:none" />
    </g>
    <g
       id="g2">
      <path
         d="m 73.616154,168.92043 c 0.33549,-0.11932 0.508,-0.72919 0.36433,-1.41208 -0.13732,-0.65272 -0.54557,-1.08849 -1.17395,-0.86492 -0.54504,0.19368 -0.65987,0.81412 -0.36433,1.41182 0.29765,0.60219 0.83846,0.98451 1.17395,0.86518 z"
         id="path28-41-8-51-1"
         style="fill:#fff8e7;fill-opacity:1;stroke-width:0.264583" />
      <path
         d="m 70.892274,168.93578 c -0.35005,-0.0664 -0.6141,-0.64241 -0.57732,-1.33932 0.0354,-0.66596 0.37174,-1.1594 1.02711,-1.03505 0.56859,0.10769 0.77734,0.703 0.57706,1.33906 -0.20135,0.64055 -0.67707,1.10172 -1.02685,1.03531 z"
         id="path27-1-2-7-9"
         style="fill:#fff8e7;fill-opacity:1;stroke-width:0.264583" />
      <path
         d="m 75.031144,167.00644 c 0.27623,-0.19288 0.28046,-0.79269 -0.0217,-1.3798 -0.28892,-0.56092 -0.77073,-0.85619 -1.28799,-0.49477 -0.44873,0.31353 -0.39793,0.90831 0.0217,1.3798 0.42228,0.4744 1.01177,0.68765 1.288,0.49477 z"
         id="path26-38-4-11-8"
         style="fill:#fff8e7;fill-opacity:1;stroke-width:0.264583" />
      <path
         d="m 69.218784,167.19323 c -0.31433,-0.14261 -0.43101,-0.74612 -0.23654,-1.39435 0.18627,-0.61939 0.61648,-1.007 1.20544,-0.73977 0.51091,0.23204 0.57097,0.84084 0.23654,1.39435 -0.33708,0.55748 -0.89085,0.88265 -1.20544,0.73977 z"
         id="path25-7-5-5-6"
         style="fill:#fff8e7;fill-opacity:1;stroke-width:0.264583" />
      <path
         d="m 72.074434,166.03171 c -0.88107,0 -1.86717,-1.62004 -2.0193,-2.3061 -0.15214,-0.68633 0.26352,-1.25122 0.9218,-1.08797 0.28893,0.0717 0.86043,0.34581 1.08532,0.34158 0.24474,-0.004 0.62945,-0.2212 0.94906,-0.33126 0.703,-0.24236 1.24804,0.33946 1.06098,1.07765 -0.20478,0.80724 -1.18533,2.3061 -1.99786,2.3061 z"
         id="path1-4-5-2-5"
         style="fill:#acbeb9;fill-opacity:1;stroke:none;stroke-width:0;stroke-dasharray:none" />
    </g>
  </g>
</svg>
