<?xml version="1.0" encoding="UTF-8" standalone="no"?>
<svg
   width="669.16211"
   height="389.07312"
   fill-rule="evenodd"
   clip-rule="evenodd"
   version="1.1"
   id="svg1"
   sodipodi:docname="Paws.svg"
   inkscape:version="1.4.2 (f4327f4, 2025-05-13)"
   xmlns:inkscape="http://www.inkscape.org/namespaces/inkscape"
   xmlns:sodipodi="http://sodipodi.sourceforge.net/DTD/sodipodi-0.dtd"
   xmlns="http://www.w3.org/2000/svg"
   xmlns:svg="http://www.w3.org/2000/svg">
  <defs
     id="defs1" />
  <sodipodi:namedview
     id="namedview1"
     pagecolor="#ffffff"
     bordercolor="#000000"
     borderopacity="0.25"
     inkscape:showpageshadow="2"
     inkscape:pageopacity="0.0"
     inkscape:pagecheckerboard="0"
     inkscape:deskcolor="#d1d1d1"
     inkscape:zoom="1.4234207"
     inkscape:cx="381.47542"
     inkscape:cy="187.92758"
     inkscape:window-width="1920"
     inkscape:window-height="991"
     inkscape:window-x="-9"
     inkscape:window-y="1341"
     inkscape:window-maximized="1"
     inkscape:current-layer="svg1" />
  <path
     fill="#484340"
     d="m 12.553393,374.89942 c 2.735825,1.89846 2.307035,9.05373 1.301145,11.51187 -1.006461,2.45896 -3.514329,3.31737 -5.2066346,1.39203 -0.742654,-0.84521 -1.92661,-2.92779 -2.634066,-3.39924 -0.769073,-0.5142 -2.431124,-0.66945 -3.660744,-1.01637 -2.70512899,-0.76222 -3.14389099,-3.74328 -0.972438,-5.63239 2.375297,-2.06534 8.6496996,-4.60671 11.1727376,-2.8559 z m 11.369973,2.5465 c 0.668736,1.12011 -0.269371,3.24553 -2.269992,4.83934 -1.91301,1.52194 -4.084091,1.79854 -5.337093,-0.30031 -1.086464,-1.82139 0.03886,-3.84124 2.269992,-4.83934 2.247899,-1.00473 4.668107,-0.8212 5.337093,0.30031 z M 5.4726414,365.50179 c -1.273327,0.004 -2.578909,1.8571 -2.90575,4.33123 -0.311478,2.36429 0.548358,4.31933 2.933294,4.31163 2.068961,-0.007 3.192825,-1.96301 2.90575,-4.33124 -0.289018,-2.38296 -1.659966,-4.31535 -2.933294,-4.31162 z m 17.0090396,2.92733 c 0.943838,0.96047 0.522637,3.318 -1.093229,5.40277 -1.545054,1.99149 -3.652522,2.79911 -5.419597,1.00081 -1.533518,-1.55954 -0.89899,-3.85789 1.09348,-5.40137 2.005448,-1.55516 4.476329,-1.9621 5.419346,-1.00221 z m -8.491119,-5.82162 c -1.298869,-0.35237 -3.148633,1.16964 -4.1739726,3.59968 -0.980065,2.32269 -0.651354,4.5555 1.7816146,5.21528 2.109752,0.57304 3.803219,-1.10612 4.173403,-3.59885 0.373303,-2.51127 -0.482177,-4.86374 -1.781045,-5.21611 z"
     id="path1-8"
     style="fill:#e7e3e0;fill-opacity:1" />
  <path
     fill="#484340"
     d="m 40.758376,375.1152 c 2.735825,1.89846 2.307035,9.05373 1.301145,11.51187 -1.006461,2.45896 -3.514329,3.31737 -5.206635,1.39203 -0.742654,-0.8452 -1.92661,-2.92779 -2.634066,-3.39923 -0.769073,-0.51421 -2.431124,-0.66946 -3.660744,-1.01638 -2.705129,-0.76222 -3.143891,-3.74328 -0.972438,-5.63239 2.375297,-2.06534 8.6497,-4.6067 11.172738,-2.8559 z m 11.369973,2.5465 c 0.668736,1.12012 -0.269371,3.24553 -2.269992,4.83935 -1.91301,1.52193 -4.084091,1.79853 -5.337093,-0.30031 -1.086464,-1.8214 0.03886,-3.84125 2.269992,-4.83935 2.247899,-1.00473 4.668107,-0.8212 5.337093,0.30031 z M 33.677624,365.71757 c -1.273327,0.004 -2.578909,1.85711 -2.90575,4.33123 -0.311478,2.36429 0.548358,4.31933 2.933294,4.31163 2.068961,-0.007 3.192825,-1.963 2.90575,-4.33123 -0.289018,-2.38297 -1.659966,-4.31536 -2.933294,-4.31163 z m 17.00904,2.92734 c 0.943838,0.96046 0.522637,3.31799 -1.093229,5.40276 -1.545054,1.99149 -3.652522,2.79911 -5.419597,1.00081 -1.533518,-1.55954 -0.89899,-3.85789 1.09348,-5.40137 2.005448,-1.55516 4.476329,-1.9621 5.419346,-1.0022 z m -8.491119,-5.82163 c -1.298869,-0.35237 -3.148633,1.16964 -4.173973,3.59968 -0.980065,2.3227 -0.651354,4.5555 1.781615,5.21528 2.109752,0.57304 3.803219,-1.10611 4.173403,-3.59885 0.373303,-2.51126 -0.482177,-4.86373 -1.781045,-5.21611 z"
     id="path1-8-5"
     style="fill:#e7e3e0;fill-opacity:1" />
  <path
     fill="#484340"
     d="m 56.181404,319.52141 c 2.735825,1.89846 2.307035,9.05373 1.301145,11.51187 -1.006461,2.45896 -3.514329,3.31737 -5.206635,1.39203 -0.742654,-0.8452 -1.92661,-2.92779 -2.634067,-3.39923 -0.769073,-0.51421 -2.431124,-0.66946 -3.660744,-1.01638 -2.705129,-0.76222 -3.143891,-3.74328 -0.972438,-5.63239 2.375297,-2.06534 8.649701,-4.6067 11.172739,-2.8559 z m 11.369973,2.5465 c 0.668736,1.12012 -0.269371,3.24553 -2.269992,4.83935 -1.91301,1.52193 -4.084091,1.79853 -5.337094,-0.30031 -1.086463,-1.8214 0.03886,-3.84125 2.269993,-4.83935 2.247899,-1.00473 4.668107,-0.8212 5.337093,0.30031 z M 49.100651,310.12378 c -1.273327,0.004 -2.578909,1.85711 -2.90575,4.33123 -0.311478,2.36429 0.548358,4.31933 2.933294,4.31163 2.068962,-0.007 3.192826,-1.963 2.905751,-4.33123 -0.289018,-2.38297 -1.659966,-4.31536 -2.933295,-4.31163 z m 17.009041,2.92734 c 0.943838,0.96046 0.522637,3.31799 -1.093229,5.40276 -1.545054,1.99149 -3.652522,2.79911 -5.419598,1.00081 -1.533517,-1.55954 -0.898989,-3.85789 1.09348,-5.40137 2.005449,-1.55516 4.47633,-1.9621 5.419347,-1.0022 z m -8.491119,-5.82163 c -1.298869,-0.35237 -3.148633,1.16964 -4.173973,3.59968 -0.980065,2.3227 -0.651354,4.5555 1.781615,5.21528 2.109752,0.57304 3.803218,-1.10611 4.173402,-3.59885 0.373303,-2.51126 -0.482176,-4.86373 -1.781044,-5.21611 z"
     id="path1-8-2"
     style="fill:#e7e3e0;fill-opacity:1" />
  <path
     fill="#484340"
     d="m 84.386386,319.73719 c 2.735825,1.89847 2.307035,9.05373 1.301145,11.51187 -1.006461,2.45896 -3.514329,3.31737 -5.206635,1.39203 -0.742654,-0.8452 -1.92661,-2.92778 -2.634066,-3.39923 -0.769073,-0.51421 -2.431124,-0.66946 -3.660744,-1.01638 -2.705129,-0.76222 -3.143891,-3.74328 -0.972438,-5.63239 2.375297,-2.06534 8.6497,-4.6067 11.172738,-2.8559 z m 11.369973,2.5465 c 0.668736,1.12012 -0.269371,3.24553 -2.269992,4.83935 -1.91301,1.52193 -4.084091,1.79854 -5.337093,-0.30031 -1.086464,-1.8214 0.03886,-3.84124 2.269992,-4.83935 2.247899,-1.00472 4.668107,-0.82119 5.337093,0.30031 z M 77.305634,310.33956 c -1.273327,0.004 -2.578909,1.85711 -2.90575,4.33123 -0.311478,2.36429 0.548358,4.31933 2.933294,4.31163 2.068961,-0.007 3.192825,-1.963 2.90575,-4.33123 -0.289018,-2.38297 -1.659966,-4.31536 -2.933294,-4.31163 z m 17.00904,2.92734 c 0.943838,0.96047 0.522637,3.31799 -1.093229,5.40276 -1.545054,1.99149 -3.652522,2.79911 -5.419597,1.00081 -1.533518,-1.55954 -0.89899,-3.85789 1.09348,-5.40137 2.005448,-1.55516 4.476329,-1.9621 5.419346,-1.0022 z m -8.491119,-5.82162 c -1.298869,-0.35237 -3.148633,1.16963 -4.173973,3.59967 -0.980065,2.3227 -0.651354,4.5555 1.781615,5.21528 2.109752,0.57304 3.803219,-1.10611 4.173403,-3.59885 0.373303,-2.51126 -0.482177,-4.86373 -1.781045,-5.2161 z"
     id="path1-8-5-3"
     style="fill:#e7e3e0;fill-opacity:1" />
  <path
     fill="#484340"
     d="m 106.0184,265.06475 c 2.73583,1.89847 2.30704,9.05373 1.30115,11.51187 -1.00646,2.45896 -3.51433,3.31737 -5.20664,1.39203 -0.74265,-0.8452 -1.92661,-2.92778 -2.634064,-3.39923 -0.769073,-0.51421 -2.431124,-0.66946 -3.660744,-1.01638 -2.705129,-0.76222 -3.143891,-3.74328 -0.972438,-5.63239 2.375297,-2.06534 8.649696,-4.6067 11.172736,-2.8559 z m 11.36998,2.5465 c 0.66873,1.12012 -0.26938,3.24553 -2.27,4.83935 -1.91301,1.52193 -4.08409,1.79854 -5.33709,-0.30031 -1.08646,-1.8214 0.0389,-3.84124 2.26999,-4.83935 2.2479,-1.00472 4.66811,-0.82119 5.3371,0.30031 z M 98.93765,255.66712 c -1.273327,0.004 -2.578909,1.85711 -2.90575,4.33123 -0.311478,2.36429 0.548358,4.31933 2.933294,4.31163 2.068966,-0.007 3.192826,-1.963 2.905746,-4.33123 -0.28901,-2.38297 -1.65996,-4.31536 -2.93329,-4.31163 z m 17.00904,2.92734 c 0.94384,0.96047 0.52264,3.31799 -1.09323,5.40276 -1.54505,1.99149 -3.65252,2.79911 -5.4196,1.00081 -1.53351,-1.55954 -0.89899,-3.85789 1.09348,-5.40137 2.00545,-1.55516 4.47633,-1.9621 5.41935,-1.0022 z m -8.49112,-5.82162 c -1.29887,-0.35237 -3.14863,1.16963 -4.17397,3.59967 -0.98007,2.3227 -0.65136,4.5555 1.78161,5.21528 2.10976,0.57304 3.80322,-1.10611 4.17341,-3.59885 0.3733,-2.51126 -0.48218,-4.86373 -1.78105,-5.2161 z"
     id="path1-8-6"
     style="fill:#e7e3e0;fill-opacity:1" />
  <path
     fill="#484340"
     d="m 134.22339,265.28053 c 2.73582,1.89847 2.30703,9.05373 1.30114,11.51187 -1.00646,2.45896 -3.51433,3.31737 -5.20663,1.39203 -0.74266,-0.8452 -1.92661,-2.92778 -2.63407,-3.39923 -0.76907,-0.5142 -2.43112,-0.66946 -3.66074,-1.01638 -2.70513,-0.76222 -3.1439,-3.74327 -0.97244,-5.63238 2.37529,-2.06535 8.6497,-4.60671 11.17274,-2.85591 z m 11.36997,2.5465 c 0.66873,1.12012 -0.26937,3.24554 -2.26999,4.83935 -1.91301,1.52194 -4.08409,1.79854 -5.3371,-0.30031 -1.08646,-1.8214 0.0389,-3.84124 2.27,-4.83935 2.24789,-1.00472 4.6681,-0.82119 5.33709,0.30031 z m -18.45073,-11.94412 c -1.27332,0.004 -2.57891,1.8571 -2.90575,4.33123 -0.31147,2.36428 0.54836,4.31932 2.9333,4.31162 2.06896,-0.007 3.19282,-1.963 2.90575,-4.33123 -0.28902,-2.38297 -1.65997,-4.31535 -2.9333,-4.31162 z m 17.00904,2.92733 c 0.94384,0.96047 0.52264,3.31799 -1.09323,5.40276 -1.54505,1.9915 -3.65252,2.79911 -5.41959,1.00082 -1.53352,-1.55955 -0.89899,-3.85789 1.09348,-5.40137 2.00545,-1.55517 4.47633,-1.96211 5.41934,-1.00221 z m -8.49112,-5.82162 c -1.29886,-0.35237 -3.14863,1.16963 -4.17397,3.59967 -0.98006,2.3227 -0.65135,4.5555 1.78162,5.21529 2.10975,0.57303 3.80322,-1.10612 4.1734,-3.59886 0.3733,-2.51126 -0.48218,-4.86373 -1.78105,-5.2161 z"
     id="path1-8-5-8"
     style="fill:#e7e3e0;fill-opacity:1" />
  <path
     fill="#484340"
     d="m 160.70468,207.23482 c 2.73582,1.89847 2.30703,9.05373 1.30114,11.51187 -1.00646,2.45896 -3.51432,3.31737 -5.20663,1.39203 -0.74265,-0.8452 -1.92661,-2.92778 -2.63407,-3.39923 -0.76907,-0.51421 -2.43112,-0.66946 -3.66074,-1.01638 -2.70513,-0.76222 -3.14389,-3.74327 -0.97244,-5.63239 2.3753,-2.06534 8.6497,-4.6067 11.17274,-2.8559 z m 11.36997,2.5465 c 0.66873,1.12012 -0.26937,3.24553 -2.26999,4.83935 -1.91301,1.52193 -4.08409,1.79854 -5.3371,-0.30031 -1.08646,-1.8214 0.0389,-3.84124 2.27,-4.83935 2.24789,-1.00472 4.6681,-0.82119 5.33709,0.30031 z m -18.45072,-11.94413 c -1.27333,0.004 -2.57891,1.85711 -2.90575,4.33124 -0.31148,2.36428 0.54836,4.31932 2.93329,4.31162 2.06896,-0.007 3.19283,-1.963 2.90575,-4.33123 -0.28902,-2.38297 -1.65996,-4.31536 -2.93329,-4.31163 z m 17.00903,2.92734 c 0.94384,0.96047 0.52264,3.31799 -1.09323,5.40276 -1.54505,1.99149 -3.65252,2.79911 -5.41959,1.00081 -1.53352,-1.55954 -0.89899,-3.85789 1.09348,-5.40136 2.00545,-1.55517 4.47633,-1.96211 5.41934,-1.00221 z m -8.49112,-5.82162 c -1.29886,-0.35237 -3.14862,1.16963 -4.17396,3.59967 -0.98007,2.3227 -0.65136,4.5555 1.78161,5.21528 2.10975,0.57304 3.80322,-1.10611 4.1734,-3.59885 0.3733,-2.51126 -0.48218,-4.86373 -1.78105,-5.2161 z"
     id="path1-8-1"
     style="fill:#e7e3e0;fill-opacity:1" />
  <path
     fill="#484340"
     d="m 188.90966,207.45061 c 2.73582,1.89846 2.30703,9.05372 1.30114,11.51186 -1.00646,2.45896 -3.51433,3.31737 -5.20663,1.39203 -0.74266,-0.8452 -1.92661,-2.92778 -2.63407,-3.39923 -0.76907,-0.5142 -2.43112,-0.66946 -3.66074,-1.01638 -2.70513,-0.76222 -3.14389,-3.74327 -0.97244,-5.63238 2.3753,-2.06535 8.6497,-4.60671 11.17274,-2.8559 z m 11.36997,2.54649 c 0.66874,1.12012 -0.26937,3.24554 -2.26999,4.83935 -1.91301,1.52194 -4.08409,1.79854 -5.33709,-0.30031 -1.08647,-1.8214 0.0389,-3.84124 2.26999,-4.83935 2.2479,-1.00472 4.66811,-0.82119 5.33709,0.30031 z m -18.45072,-11.94412 c -1.27333,0.004 -2.57891,1.8571 -2.90575,4.33123 -0.31148,2.36428 0.54835,4.31932 2.93329,4.31162 2.06896,-0.007 3.19283,-1.963 2.90575,-4.33123 -0.28902,-2.38297 -1.65997,-4.31535 -2.93329,-4.31162 z m 17.00904,2.92733 c 0.94383,0.96047 0.52263,3.31799 -1.09323,5.40276 -1.54506,1.9915 -3.65252,2.79911 -5.4196,1.00082 -1.53352,-1.55955 -0.89899,-3.85789 1.09348,-5.40137 2.00545,-1.55517 4.47633,-1.96211 5.41935,-1.00221 z m -8.49112,-5.82162 c -1.29887,-0.35237 -3.14864,1.16963 -4.17398,3.59967 -0.98006,2.3227 -0.65135,4.5555 1.78162,5.21529 2.10975,0.57303 3.80322,-1.10612 4.1734,-3.59886 0.37331,-2.51126 -0.48217,-4.86373 -1.78104,-5.2161 z"
     id="path1-8-5-89"
     style="fill:#e7e3e0;fill-opacity:1" />
  <path
     fill="#484340"
     d="m 225.4549,154.68402 c 0.76176,3.2417 -4.34629,8.27056 -6.739,9.42349 -2.39367,1.15315 -4.83144,0.11221 -4.79995,-2.45096 0.014,-1.12503 0.52841,-3.46475 0.31839,-4.28856 -0.22717,-0.89681 -1.35804,-2.12467 -2.03935,-3.20547 -1.49953,-2.37701 0.16992,-4.88542 3.04767,-4.83541 3.14716,0.0555 9.50972,2.36735 10.21224,5.35691 z m 6.74258,9.50255 c -0.25295,1.2798 -2.37257,2.23091 -4.92575,2.07586 -2.43996,-0.14981 -4.23808,-1.39756 -3.76408,-3.79558 0.41201,-2.08042 2.60009,-2.82775 4.92575,-2.07585 2.34256,0.75822 4.01776,2.51457 3.76408,3.79557 z m -5.71265,-21.22397 c -0.94867,-0.84935 -3.15904,-0.34653 -5.05796,1.27281 -1.81398,1.54801 -2.48381,3.57602 -0.70681,5.16669 1.54178,1.37969 3.68602,0.67879 5.05795,-1.2728 1.38036,-1.96385 1.65532,-4.31715 0.70682,-5.1667 z m 10.67711,13.56009 c 0.0583,1.34534 -1.83267,2.81488 -4.42862,3.28211 -2.48091,0.44534 -4.58721,-0.36532 -4.6963,-2.88415 -0.0954,-2.18512 1.91445,-3.46791 4.42787,-3.28091 2.53089,0.18699 4.63898,1.53859 4.69705,2.88295 z m -2.41154,-10.00874 c -0.7291,-1.1312 -3.12212,-1.23863 -5.51047,-0.1196 -2.28286,1.06959 -3.53321,2.94843 -2.16731,5.06715 1.18383,1.83793 3.56593,1.72398 5.5095,0.11983 1.95829,-1.61582 2.89739,-3.93618 2.16828,-5.06738 z"
     id="path1-8-1-5"
     style="fill:#e7e3e0;fill-opacity:1" />
  <path
     fill="#484340"
     d="m 246.26486,173.7238 c 0.76176,3.24169 -4.34629,8.27055 -6.73899,9.42347 -2.39368,1.15316 -4.83145,0.11221 -4.79995,-2.45095 0.014,-1.12504 0.52841,-3.46475 0.31839,-4.28856 -0.22718,-0.89681 -1.35805,-2.12467 -2.03935,-3.20548 -1.49953,-2.377 0.16992,-4.88541 3.04766,-4.83539 3.14717,0.0555 9.50972,2.36734 10.21224,5.35691 z m 6.74259,9.50254 c -0.25294,1.27981 -2.37258,2.23091 -4.92575,2.07586 -2.43997,-0.14981 -4.23808,-1.39756 -3.76408,-3.79558 0.41201,-2.08042 2.6001,-2.82774 4.92575,-2.07586 2.34256,0.75823 4.01776,2.51459 3.76408,3.79558 z m -5.71266,-21.22396 c -0.94867,-0.84936 -3.15903,-0.34654 -5.05795,1.2728 -1.81398,1.54801 -2.48382,3.57601 -0.70682,5.16669 1.54179,1.37969 3.68603,0.67879 5.05796,-1.27281 1.38036,-1.96384 1.6553,-4.31714 0.70681,-5.16668 z m 10.67712,13.56008 c 0.0583,1.34533 -1.83267,2.81487 -4.42862,3.28212 -2.48092,0.44534 -4.58721,-0.36533 -4.69631,-2.88416 -0.0954,-2.18513 1.91445,-3.4679 4.42787,-3.28091 2.53089,0.18699 4.63898,1.53858 4.69706,2.88295 z m -2.41154,-10.00874 c -0.7291,-1.13121 -3.12213,-1.23864 -5.51048,-0.11961 -2.28285,1.06959 -3.53321,2.94844 -2.16731,5.06717 1.18383,1.83792 3.56593,1.72397 5.50951,0.11982 1.95829,-1.61582 2.89739,-3.93617 2.16828,-5.06738 z"
     id="path1-8-5-89-4"
     style="fill:#e7e3e0;fill-opacity:1" />
  <path
     fill="#484340"
     d="m 320.79272,157.72739 c -1.86669,2.75761 -9.02643,2.41164 -11.49605,1.43426 -2.47044,-0.97794 -3.35781,-3.4757 -1.45218,-5.19017 0.83654,-0.75239 2.90529,-1.96037 3.36852,-2.67323 0.50528,-0.77497 0.64129,-2.4387 0.97396,-3.67225 0.73086,-2.71378 3.70664,-3.187 5.62075,-1.03755 2.09269,2.35124 4.70649,8.59582 2.985,11.13894 z m -2.41477,11.39868 c -1.11231,0.68164 -3.24843,-0.2318 -4.86529,-2.21385 -1.54396,-1.89526 -1.84568,-4.063 0.23853,-5.34021 1.80871,-1.10747 3.84143,-0.006 4.86529,2.21385 1.03067,2.23612 0.87515,4.65828 -0.23853,5.34021 z m 11.72983,-18.5877 c -0.0187,-1.27319 -1.88682,-2.55724 -4.36457,-2.85543 -2.36773,-0.28411 -4.31268,0.5983 -4.27739,2.98298 0.0309,2.06874 1.99982,3.1699 4.36456,2.85544 2.37947,-0.31657 4.29587,-1.70978 4.2774,-2.98299 z m -2.73032,17.04177 c -0.94949,0.95489 -3.31173,0.561 -5.41505,-1.03064 -2.00924,-1.5219 -2.84119,-3.61989 -1.06345,-5.40765 1.54169,-1.55146 3.84722,-0.94357 5.41365,1.03091 1.57827,1.98732 2.01377,4.45333 1.06485,5.40738 z m 5.72297,-8.55792 c 0.33732,-1.30284 -1.20598,-3.13487 -3.64772,-4.13202 -2.33389,-0.95313 -4.56273,-0.59861 -5.19432,1.84184 -0.54859,2.11624 1.15005,3.79016 3.6469,4.13147 2.51541,0.34422 4.85783,-0.53842 5.19514,-1.84129 z"
     id="path1-8-1-5-3"
     style="fill:#e7e3e0;fill-opacity:1" />
  <path
     fill="#484340"
     d="m 320.90331,185.93298 c -1.86668,2.7576 -9.02643,2.41164 -11.49604,1.43426 -2.47044,-0.97794 -3.35781,-3.47571 -1.45218,-5.19017 0.83655,-0.75239 2.90529,-1.96036 3.36852,-2.67323 0.50527,-0.77497 0.64128,-2.43871 0.97396,-3.67225 0.73086,-2.71378 3.70664,-3.187 5.62074,-1.03756 2.0927,2.35125 4.70649,8.59582 2.985,11.13895 z m -2.41476,11.39868 c -1.11231,0.68166 -3.24844,-0.2318 -4.86529,-2.21385 -1.54398,-1.89526 -1.84568,-4.063 0.23853,-5.3402 1.80871,-1.10747 3.84144,-0.006 4.8653,2.21384 1.03066,2.23612 0.87514,4.65829 -0.23854,5.34021 z m 11.72982,-18.5877 c -0.0187,-1.27319 -1.88681,-2.55724 -4.36456,-2.85543 -2.36773,-0.28411 -4.31268,0.59829 -4.27739,2.98298 0.0309,2.06874 1.99982,3.1699 4.36457,2.85544 2.37946,-0.31657 4.29585,-1.7098 4.27738,-2.98299 z m -2.73032,17.04178 c -0.94948,0.95488 -3.31172,0.56099 -5.41504,-1.03064 -2.00925,-1.52192 -2.84119,-3.61989 -1.06347,-5.40766 1.5417,-1.55147 3.84723,-0.94357 5.41366,1.03091 1.57827,1.98731 2.01377,4.45332 1.06485,5.40739 z m 5.72298,-8.55792 c 0.33732,-1.30285 -1.20598,-3.13489 -3.64773,-4.13205 -2.33388,-0.95311 -4.56273,-0.59859 -5.19432,1.84186 -0.54858,2.11623 1.15005,3.79016 3.64691,4.13147 2.51541,0.34422 4.85782,-0.53842 5.19514,-1.84128 z"
     id="path1-8-5-89-4-3"
     style="fill:#e7e3e0;fill-opacity:1" />
  <path
     fill="#484340"
     d="m 373.66171,210.35383 c -2.97512,1.49585 -9.05541,-2.30042 -10.73392,-4.35879 -1.67896,-2.05925 -1.23444,-4.67242 1.26557,-5.2388 1.09735,-0.24842 3.49253,-0.29311 4.24477,-0.68923 0.81923,-0.42981 1.74993,-1.81556 2.64232,-2.72987 1.96236,-2.01193 4.79062,-0.97263 5.41226,1.83762 0.67901,3.07354 -0.0873,9.79956 -2.831,11.17907 z m -7.67076,8.77043 c -1.30351,0.0521 -2.72215,-1.78771 -3.16604,-4.30678 -0.42261,-2.40775 0.37201,-4.44704 2.81448,-4.54461 2.11917,-0.0839 3.35558,1.86996 3.16604,4.30678 -0.19175,2.45474 -1.50963,4.49295 -2.81448,4.54461 z m 19.3097,-10.49891 c 0.60503,-1.12041 -0.39879,-3.15287 -2.41588,-4.6224 -1.92793,-1.40353 -4.05618,-1.58259 -5.18922,0.51603 -0.98264,1.82073 0.1984,3.74274 2.41587,4.62239 2.23134,0.88498 4.58396,0.60427 5.18923,-0.51602 z m -10.7003,13.5418 c -1.29476,0.37004 -3.16431,-1.12664 -4.22333,-3.54237 -1.01093,-2.30895 -0.71316,-4.54614 1.71099,-5.2389 2.10281,-0.60172 3.81844,1.05407 4.22199,3.54192 0.40763,2.50484 -0.41578,4.86976 -1.70965,5.23935 z m 9.17179,-4.6764 c 0.93027,-0.97252 0.47737,-3.32474 -1.16716,-5.38677 -1.57188,-1.97095 -3.69028,-2.7493 -5.43259,-0.92749 -1.51164,1.57935 -0.84601,3.8694 1.16671,5.38588 2.0275,1.52809 4.50277,1.90091 5.43304,0.92838 z"
     id="path1-8-1-5-38"
     style="fill:#e7e3e0;fill-opacity:1" />
  <path
     fill="#484340"
     d="m 359.99252,235.0261 c -2.97511,1.49585 -9.0554,-2.30042 -10.73391,-4.35878 -1.67896,-2.05926 -1.23444,-4.67244 1.26557,-5.2388 1.09736,-0.24843 3.49254,-0.29312 4.24477,-0.68924 0.81923,-0.42981 1.74993,-1.81556 2.64232,-2.72986 1.96237,-2.01193 4.79063,-0.97264 5.41226,1.8376 0.67902,3.07355 -0.0873,9.79957 -2.83101,11.17908 z m -7.67075,8.77043 c -1.30352,0.0521 -2.72216,-1.78771 -3.16604,-4.30678 -0.42262,-2.40775 0.37201,-4.44703 2.81448,-4.5446 2.11917,-0.0839 3.35558,1.86997 3.16604,4.30678 -0.19175,2.45474 -1.50963,4.49294 -2.81448,4.5446 z m 19.30969,-10.49891 c 0.60503,-1.12041 -0.39878,-3.15286 -2.41587,-4.62239 -1.92793,-1.40354 -4.05618,-1.5826 -5.18922,0.51601 -0.98264,1.82074 0.19841,3.74276 2.41587,4.6224 2.23134,0.88499 4.58395,0.60425 5.18922,-0.51602 z m -10.70029,13.54181 c -1.29475,0.37004 -3.16431,-1.12664 -4.22334,-3.54237 -1.01093,-2.30896 -0.71315,-4.54614 1.711,-5.23891 2.10281,-0.60173 3.81843,1.05407 4.22199,3.54192 0.40763,2.50483 -0.41578,4.86975 -1.70965,5.23936 z m 9.17179,-4.6764 c 0.93028,-0.97252 0.47738,-3.32476 -1.16715,-5.38678 -1.57189,-1.97095 -3.69029,-2.74931 -5.4326,-0.92749 -1.51164,1.57935 -0.84601,3.86939 1.16671,5.38589 2.0275,1.52808 4.50276,1.90091 5.43304,0.92838 z"
     id="path1-8-5-89-4-7"
     style="fill:#e7e3e0;fill-opacity:1" />
  <path
     fill="#484340"
     d="m 432.98004,243.58675 c -1.75542,2.82974 -8.92326,2.76907 -11.42983,1.89078 -2.50742,-0.87881 -3.49352,-3.33927 -1.65766,-5.12824 0.80593,-0.7851 2.82494,-2.07447 3.25943,-2.80522 0.47402,-0.79446 0.5437,-2.46229 0.82699,-3.70811 0.62225,-2.74072 3.57682,-3.33203 5.57499,-1.26049 2.18464,2.26607 5.04495,8.40164 3.42608,11.01128 z m -1.95907,11.48577 c -1.08428,0.72539 -3.25508,-0.10229 -4.94957,-2.0184 -1.61818,-1.8323 -2.00596,-3.9863 0.0258,-5.34547 1.76319,-1.1786 3.83817,-0.15849 4.94957,2.0184 1.11887,2.19331 1.0599,4.61976 -0.0258,5.34547 z m 10.98056,-19.03993 c -0.0694,-1.27144 -1.98714,-2.4801 -4.47479,-2.67942 -2.37716,-0.18962 -4.28545,0.76952 -4.15525,3.15091 0.11327,2.06587 2.12442,3.08778 4.47478,2.67942 2.36498,-0.41105 4.22439,-1.87945 4.15526,-3.15091 z m -2.04973,17.13696 c -0.91072,0.99193 -3.28676,0.69238 -5.45178,-0.81426 -2.06823,-1.44071 -2.98305,-3.5039 -1.2779,-5.36102 1.47871,-1.61161 3.80663,-1.09598 5.4504,0.81457 1.65614,1.92292 2.18948,4.36963 1.27928,5.36071 z m 5.37775,-8.77897 c 0.28518,-1.31524 -1.32983,-3.08438 -3.80934,-3.98354 -2.36998,-0.85945 -4.58294,-0.41648 -5.11687,2.04717 -0.4639,2.1364 1.30002,3.74138 3.80849,3.98302 2.52712,0.2438 4.83254,-0.73139 5.11772,-2.04665 z"
     id="path1-8-1-5-38-8"
     style="fill:#e7e3e0;fill-opacity:1" />
  <path
     fill="#484340"
     d="m 434.21341,271.76557 c -1.75541,2.82973 -8.92325,2.76907 -11.42981,1.89079 -2.50742,-0.87882 -3.49353,-3.33928 -1.65766,-5.12824 0.80594,-0.7851 2.82495,-2.07447 3.25943,-2.80522 0.47402,-0.79447 0.54369,-2.4623 0.82699,-3.70811 0.62225,-2.74073 3.57683,-3.33204 5.57499,-1.2605 2.18465,2.26608 5.04494,8.40164 3.42606,11.01128 z m -1.95905,11.48578 c -1.08429,0.72539 -3.25509,-0.10229 -4.94957,-2.0184 -1.6182,-1.8323 -2.00596,-3.98631 0.0258,-5.34547 1.76318,-1.17862 3.83818,-0.15847 4.94957,2.0184 1.11887,2.19331 1.0599,4.61976 -0.0258,5.34547 z m 10.98054,-19.03993 c -0.0694,-1.27144 -1.98712,-2.4801 -4.47478,-2.67942 -2.37716,-0.18962 -4.28545,0.76951 -4.15524,3.15091 0.11327,2.06586 2.12443,3.08777 4.47478,2.67942 2.36497,-0.41105 4.22438,-1.87946 4.15524,-3.15091 z m -2.04971,17.13696 c -0.91072,0.99192 -3.28676,0.69239 -5.45179,-0.81425 -2.06824,-1.44072 -2.98304,-3.50391 -1.27789,-5.36103 1.47871,-1.61161 3.80661,-1.09599 5.4504,0.81457 1.65613,1.92291 2.18947,4.36962 1.27928,5.36071 z m 5.37774,-8.77897 c 0.28519,-1.31525 -1.32982,-3.08439 -3.80933,-3.98355 -2.36998,-0.85944 -4.58295,-0.41647 -5.11688,2.04717 -0.4639,2.1364 1.30003,3.74139 3.80849,3.98303 2.52713,0.2438 4.83254,-0.73138 5.11772,-2.04665 z"
     id="path1-8-5-89-4-7-6"
     style="fill:#e7e3e0;fill-opacity:1" />
  <path
     fill="#484340"
     d="m 496.06769,224.08539 c 0.44051,3.30073 -5.13565,7.80496 -7.6298,8.71793 -2.49513,0.9131 -4.81919,-0.36166 -4.53674,-2.90942 0.12414,-1.11825 0.86531,-3.39631 0.73701,-4.23674 -0.13822,-0.91474 -1.14335,-2.24749 -1.7155,-3.38984 -1.25944,-2.51248 0.64772,-4.84526 3.50673,-4.51357 3.12658,0.3636 9.23204,3.28764 9.6383,6.33164 z m 5.77918,10.1174 c -0.37711,1.24886 -2.57972,1.98773 -5.10543,1.58329 -2.41354,-0.38813 -4.08076,-1.80603 -3.37412,-4.14608 0.61386,-2.03005 2.86462,-2.55942 5.10543,-1.58329 2.25701,0.98407 3.75208,2.8961 3.37412,4.14608 z m -3.60586,-21.68154 c -0.8609,-0.93821 -3.10989,-0.65435 -5.15832,0.77116 -1.95692,1.36284 -2.82221,3.31548 -1.2096,5.07259 1.3992,1.5241 3.60179,1.03665 5.15832,-0.77115 1.56611,-1.81917 2.0703,-4.13421 1.2096,-5.0726 z m 9.29726,14.54089 c -0.0738,1.34458 -2.09962,2.62179 -4.72886,2.83245 -2.5126,0.20014 -4.52935,-0.81296 -4.39114,-3.33037 0.11917,-2.18396 2.24499,-3.26367 4.72799,-2.83133 2.5004,0.43405 4.46593,1.98566 4.39201,3.32925 z m -1.41938,-10.19685 c -0.61477,-1.19719 -2.98575,-1.53853 -5.47224,-0.65888 -2.37667,0.84079 -3.80507,2.5881 -2.65331,4.83045 0.99807,1.94505 3.37987,2.06504 5.47125,0.65901 2.10718,-1.4162 3.26908,-3.63339 2.6543,-4.83058 z"
     id="path1-8-1-5-38-86"
     style="fill:#e7e3e0;fill-opacity:1" />
  <path
     fill="#484340"
     d="m 514.91222,245.07232 c 0.44051,3.30072 -5.13565,7.80495 -7.62979,8.71792 -2.49514,0.9131 -4.8192,-0.36166 -4.53674,-2.90942 0.12414,-1.11825 0.86532,-3.39632 0.73701,-4.23673 -0.13823,-0.91475 -1.14336,-2.2475 -1.7155,-3.38985 -1.25944,-2.51248 0.64772,-4.84527 3.50672,-4.51356 3.12659,0.36359 9.23204,3.28763 9.6383,6.33164 z m 5.77919,10.1174 c -0.3771,1.24886 -2.57973,1.98773 -5.10543,1.58329 -2.41355,-0.38813 -4.08076,-1.80604 -3.37412,-4.14608 0.61386,-2.03006 2.86463,-2.55942 5.10543,-1.5833 2.25702,0.98407 3.75208,2.89611 3.37412,4.14609 z m -3.60587,-21.68154 c -0.8609,-0.9382 -3.10988,-0.65436 -5.15831,0.77116 -1.95692,1.36284 -2.82222,3.31547 -1.20961,5.07258 1.39921,1.52411 3.60181,1.03665 5.15833,-0.77115 1.56611,-1.81916 2.07028,-4.1342 1.20959,-5.07259 z m 9.29727,14.54089 c -0.0738,1.34457 -2.09962,2.62178 -4.72886,2.83246 -2.51261,0.20013 -4.52935,-0.81298 -4.39115,-3.33039 0.11917,-2.18396 2.24499,-3.26366 4.72799,-2.83133 2.5004,0.43405 4.46593,1.98566 4.39202,3.32926 z m -1.41938,-10.19685 c -0.61477,-1.1972 -2.98576,-1.53855 -5.47225,-0.6589 -2.37666,0.8408 -3.80507,2.58812 -2.65331,4.83046 0.99807,1.94506 3.37987,2.06504 5.47126,0.65902 2.10718,-1.4162 3.26908,-3.63338 2.6543,-4.83058 z"
     id="path1-8-5-89-4-7-5"
     style="fill:#e7e3e0;fill-opacity:1" />
  <path
     fill="#484340"
     d="m 537.32605,178.66456 c 2.60297,2.07689 1.69742,9.18755 0.52965,11.57305 -1.16838,2.38628 -3.72796,3.07534 -5.28794,1.04131 -0.68458,-0.89289 -1.72685,-3.04987 -2.40126,-3.56751 -0.73301,-0.5644 -2.38099,-0.83028 -3.58471,-1.25852 -2.6482,-0.94112 -2.88695,-3.94481 -0.59423,-5.68474 2.5079,-1.90215 8.93798,-4.01892 11.33849,-2.10359 z m 11.17459,3.29993 c 0.59245,1.16226 -0.48546,3.2203 -2.58803,4.67699 -2.01035,1.39081 -4.19505,1.52186 -5.30513,-0.65596 -0.96245,-1.88988 0.29525,-3.83008 2.58802,-4.677 2.30996,-0.85241 4.71252,-0.50769 5.30514,0.65597 z m -17.61212,-13.14934 c -1.27076,-0.081 -2.69714,1.68079 -3.18844,4.12758 -0.46863,2.33821 0.25876,4.34629 2.63889,4.49784 2.06481,0.13115 3.31677,-1.74545 3.18843,-4.12756 -0.12927,-2.39695 -1.36814,-4.41657 -2.63888,-4.49786 z m 16.77565,4.05641 c 0.8776,1.02135 0.29994,3.34548 -1.45151,5.31771 -1.67457,1.8839 -3.83125,2.54902 -5.47431,0.63675 -1.42598,-1.65845 -0.63942,-3.90931 1.45166,-5.31631 2.1048,-1.4178 4.59733,-1.65887 5.47416,-0.63815 z m -8.08351,-6.37553 c -1.27244,-0.4383 -3.21968,0.9568 -4.40498,3.31297 -1.13295,2.25208 -0.95404,4.50184 1.42945,5.32258 2.06678,0.71261 3.86858,-0.84972 4.40436,-3.31218 0.54012,-2.48074 -0.15638,-4.88508 -1.42883,-5.32337 z"
     id="path1-8-1-5-38-0"
     style="fill:#e7e3e0;fill-opacity:1" />
  <path
     fill="#484340"
     d="m 565.45369,180.76295 c 2.60296,2.07688 1.69741,9.18755 0.52966,11.57305 -1.16839,2.38628 -3.72797,3.07534 -5.28796,1.0413 -0.68457,-0.8929 -1.72683,-3.04988 -2.40124,-3.56751 -0.73303,-0.5644 -2.381,-0.83027 -3.58471,-1.25851 -2.64821,-0.94113 -2.88696,-3.94483 -0.59424,-5.68474 2.5079,-1.90216 8.93798,-4.01893 11.33849,-2.10359 z m 11.17459,3.29992 c 0.59247,1.16227 -0.48546,3.22031 -2.58803,4.67699 -2.01034,1.39083 -4.19505,1.52186 -5.30512,-0.65596 -0.96245,-1.88988 0.29526,-3.83008 2.58802,-4.677 2.30996,-0.85241 4.71251,-0.50769 5.30513,0.65597 z m -17.61212,-13.14932 c -1.27075,-0.081 -2.69713,1.68077 -3.18844,4.12757 -0.46863,2.3382 0.25876,4.34629 2.63889,4.49784 2.06481,0.13114 3.31677,-1.74547 3.18843,-4.12757 -0.12927,-2.39695 -1.36814,-4.41655 -2.63888,-4.49784 z m 16.77565,4.05639 c 0.8776,1.02134 0.29995,3.34548 -1.4515,5.31772 -1.67458,1.8839 -3.83126,2.54901 -5.47432,0.63674 -1.42599,-1.65844 -0.63942,-3.9093 1.45165,-5.3163 2.10481,-1.41781 4.59734,-1.65888 5.47417,-0.63816 z m -8.0835,-6.37553 c -1.27244,-0.43831 -3.2197,0.9568 -4.40499,3.31296 -1.13295,2.25209 -0.95404,4.50186 1.42945,5.3226 2.06678,0.71261 3.86858,-0.84972 4.40436,-3.31219 0.54013,-2.48074 -0.15637,-4.88506 -1.42882,-5.32337 z"
     id="path1-8-5-89-4-7-61"
     style="fill:#e7e3e0;fill-opacity:1" />
  <path
     fill="#484340"
     d="m 570.93271,123.48291 c 2.60297,2.07689 1.69742,9.18756 0.52965,11.57306 -1.16838,2.38628 -3.72796,3.07534 -5.28794,1.04131 -0.68458,-0.89289 -1.72685,-3.04987 -2.40126,-3.56751 -0.73301,-0.56441 -2.38099,-0.83028 -3.58471,-1.25852 -2.6482,-0.94112 -2.88695,-3.94482 -0.59423,-5.68474 2.5079,-1.90215 8.93798,-4.01893 11.33849,-2.1036 z m 11.17459,3.29993 c 0.59245,1.16226 -0.48546,3.2203 -2.58803,4.677 -2.01035,1.39081 -4.19505,1.52185 -5.30513,-0.65597 -0.96245,-1.88988 0.29525,-3.83008 2.58802,-4.677 2.30996,-0.8524 4.71252,-0.50769 5.30514,0.65597 z m -17.61212,-13.14933 c -1.27076,-0.081 -2.69714,1.68078 -3.18844,4.12758 -0.46863,2.3382 0.25876,4.34629 2.63889,4.49784 2.06481,0.13114 3.31677,-1.74546 3.18843,-4.12757 -0.12927,-2.39695 -1.36814,-4.41656 -2.63888,-4.49785 z m 16.77565,4.05641 c 0.8776,1.02134 0.29994,3.34547 -1.45151,5.3177 -1.67457,1.8839 -3.83125,2.54902 -5.47431,0.63675 -1.42598,-1.65845 -0.63942,-3.90931 1.45166,-5.3163 2.1048,-1.41781 4.59733,-1.65888 5.47416,-0.63815 z m -8.08351,-6.37554 c -1.27244,-0.4383 -3.21968,0.95681 -4.40498,3.31297 -1.13295,2.25208 -0.95404,4.50185 1.42945,5.32259 2.06678,0.71261 3.86858,-0.84973 4.40436,-3.31219 0.54012,-2.48073 -0.15638,-4.88507 -1.42883,-5.32337 z"
     id="path1-8-1-5-38-0-6"
     style="fill:#e7e3e0;fill-opacity:1" />
  <path
     fill="#484340"
     d="m 599.06035,125.58131 c 2.60296,2.07688 1.69741,9.18755 0.52966,11.57304 -1.16839,2.38628 -3.72797,3.07534 -5.28796,1.04131 -0.68457,-0.8929 -1.72683,-3.04988 -2.40124,-3.56751 -0.73303,-0.5644 -2.381,-0.83028 -3.58471,-1.25852 -2.64821,-0.94113 -2.88696,-3.94482 -0.59424,-5.68474 2.5079,-1.90216 8.93798,-4.01892 11.33849,-2.10358 z m 11.17459,3.29991 c 0.59247,1.16227 -0.48546,3.22032 -2.58803,4.677 -2.01034,1.39082 -4.19505,1.52185 -5.30512,-0.65597 -0.96245,-1.88987 0.29526,-3.83008 2.58802,-4.67699 2.30996,-0.85241 4.71251,-0.5077 5.30513,0.65596 z M 592.62282,115.7319 c -1.27075,-0.081 -2.69713,1.68078 -3.18844,4.12757 -0.46863,2.33821 0.25876,4.34629 2.63889,4.49784 2.06481,0.13115 3.31677,-1.74546 3.18843,-4.12757 -0.12927,-2.39695 -1.36814,-4.41654 -2.63888,-4.49784 z m 16.77565,4.0564 c 0.8776,1.02133 0.29995,3.34547 -1.4515,5.31772 -1.67458,1.88389 -3.83126,2.549 -5.47432,0.63674 -1.42599,-1.65845 -0.63942,-3.9093 1.45165,-5.3163 2.10481,-1.41781 4.59734,-1.65888 5.47417,-0.63816 z m -8.0835,-6.37554 c -1.27244,-0.4383 -3.2197,0.95681 -4.40499,3.31297 -1.13295,2.25208 -0.95404,4.50185 1.42945,5.32259 2.06678,0.71262 3.86858,-0.84972 4.40436,-3.31218 0.54013,-2.48074 -0.15637,-4.88507 -1.42882,-5.32338 z"
     id="path1-8-5-89-4-7-61-6"
     style="fill:#e7e3e0;fill-opacity:1" />
  <path
     fill="#484340"
     d="m 600.74912,69.103184 c 2.60297,2.07688 1.69742,9.18755 0.52965,11.57305 -1.16838,2.38628 -3.72796,3.07534 -5.28794,1.04131 -0.68458,-0.89289 -1.72685,-3.04987 -2.40126,-3.56751 -0.73301,-0.56441 -2.38099,-0.83028 -3.58471,-1.25852 -2.6482,-0.94112 -2.88695,-3.94481 -0.59423,-5.68474 2.5079,-1.90215 8.93798,-4.01892 11.33849,-2.10359 z m 11.17459,3.29992 c 0.59245,1.16226 -0.48546,3.2203 -2.58803,4.677 -2.01035,1.39081 -4.19505,1.52185 -5.30513,-0.65597 -0.96245,-1.88987 0.29525,-3.83007 2.58802,-4.677 2.30996,-0.8524 4.71252,-0.50769 5.30514,0.65597 z m -17.61212,-13.14933 c -1.27076,-0.081 -2.69714,1.68079 -3.18844,4.12758 -0.46863,2.3382 0.25876,4.34629 2.63889,4.49784 2.06481,0.13115 3.31677,-1.74545 3.18843,-4.12757 -0.12927,-2.39695 -1.36814,-4.41656 -2.63888,-4.49785 z m 16.77565,4.05641 c 0.8776,1.02134 0.29994,3.34547 -1.45151,5.31771 -1.67457,1.88389 -3.83125,2.54901 -5.47431,0.63675 -1.42598,-1.65846 -0.63942,-3.90931 1.45166,-5.31631 2.1048,-1.41781 4.59733,-1.65888 5.47416,-0.63815 z m -8.08351,-6.37553 c -1.27244,-0.4383 -3.21968,0.9568 -4.40498,3.31296 -1.13295,2.25208 -0.95404,4.50185 1.42945,5.32259 2.06678,0.71261 3.86858,-0.84972 4.40436,-3.31218 0.54012,-2.48074 -0.15638,-4.88508 -1.42883,-5.32337 z"
     id="path1-8-1-5-38-0-9"
     style="fill:#e7e3e0;fill-opacity:1" />
  <path
     fill="#484340"
     d="m 628.87676,71.201574 c 2.60296,2.07688 1.69741,9.18755 0.52966,11.57304 -1.16839,2.38628 -3.72797,3.07534 -5.28796,1.04131 -0.68457,-0.8929 -1.72683,-3.04988 -2.40124,-3.56751 -0.73303,-0.5644 -2.381,-0.83028 -3.58471,-1.25852 -2.64821,-0.94113 -2.88696,-3.94482 -0.59424,-5.68473 2.5079,-1.90217 8.93798,-4.01893 11.33849,-2.10359 z m 11.17459,3.29992 c 0.59247,1.16226 -0.48546,3.22031 -2.58803,4.67699 -2.01034,1.39082 -4.19505,1.52186 -5.30512,-0.65597 -0.96245,-1.88987 0.29526,-3.83008 2.58802,-4.67699 2.30996,-0.85241 4.71251,-0.5077 5.30513,0.65597 z m -17.61212,-13.14933 c -1.27075,-0.081 -2.69713,1.68078 -3.18844,4.12757 -0.46863,2.33821 0.25876,4.3463 2.63889,4.49785 2.06481,0.13114 3.31677,-1.74547 3.18843,-4.12758 -0.12927,-2.39695 -1.36814,-4.41654 -2.63888,-4.49784 z m 16.77565,4.0564 c 0.8776,1.02134 0.29995,3.34547 -1.4515,5.31772 -1.67458,1.8839 -3.83126,2.549 -5.47432,0.63674 -1.42599,-1.65845 -0.63942,-3.9093 1.45165,-5.3163 2.10481,-1.41781 4.59734,-1.65888 5.47417,-0.63816 z m -8.0835,-6.37553 c -1.27244,-0.43831 -3.2197,0.9568 -4.40499,3.31296 -1.13295,2.25209 -0.95404,4.50186 1.42945,5.3226 2.06678,0.71261 3.86858,-0.84973 4.40436,-3.31219 0.54013,-2.48074 -0.15637,-4.88507 -1.42882,-5.32337 z"
     id="path1-8-5-89-4-7-61-63"
     style="fill:#e7e3e0;fill-opacity:1" />
  <path
     fill="#484340"
     d="m 629.69846,12.248674 c 2.60297,2.07688 1.69742,9.18755 0.52965,11.57305 -1.16838,2.38628 -3.72796,3.07534 -5.28794,1.04131 -0.68458,-0.89289 -1.72685,-3.04987 -2.40126,-3.56751 -0.73301,-0.56441 -2.38099,-0.83028 -3.58471,-1.25852 -2.6482,-0.94112 -2.88695,-3.94481 -0.59423,-5.68474 2.5079,-1.90215 8.93798,-4.01892 11.33849,-2.10359 z m 11.17459,3.29992 c 0.59245,1.16226 -0.48546,3.2203 -2.58803,4.677 -2.01035,1.39081 -4.19505,1.52185 -5.30513,-0.65597 -0.96245,-1.88987 0.29525,-3.83007 2.58802,-4.677 2.30996,-0.8524 4.71252,-0.50769 5.30514,0.65597 z M 623.26093,2.3992636 c -1.27076,-0.081 -2.69714,1.68079 -3.18844,4.12758 -0.46863,2.3382 0.25876,4.3462904 2.63889,4.4978404 2.06481,0.13115 3.31677,-1.7454504 3.18843,-4.1275704 -0.12927,-2.39695 -1.36814,-4.41656 -2.63888,-4.49785 z m 16.77565,4.05641 c 0.8776,1.02134 0.29994,3.34547 -1.45151,5.3177104 -1.67457,1.88389 -3.83125,2.54901 -5.47431,0.63675 -1.42598,-1.65846 -0.63942,-3.9093104 1.45166,-5.3163104 2.1048,-1.41781 4.59733,-1.65888 5.47416,-0.63815 z m -8.08351,-6.37553002 c -1.27244,-0.4383 -3.21968,0.95680002 -4.40498,3.31296002 -1.13295,2.25208 -0.95404,4.50185 1.42945,5.32259 2.06678,0.71261 3.86858,-0.84972 4.40436,-3.31218 0.54012,-2.48074 -0.15638,-4.88508002 -1.42883,-5.32337002 z"
     id="path1-8-1-5-38-0-2"
     style="fill:#e7e3e0;fill-opacity:1" />
  <path
     fill="#484340"
     d="m 657.8261,14.347064 c 2.60296,2.07688 1.69741,9.18755 0.52966,11.57304 -1.16839,2.38628 -3.72797,3.07534 -5.28796,1.04131 -0.68457,-0.8929 -1.72683,-3.04988 -2.40124,-3.56751 -0.73303,-0.5644 -2.381,-0.83028 -3.58471,-1.25852 -2.64821,-0.94113 -2.88696,-3.94482 -0.59424,-5.68473 2.5079,-1.90217 8.93798,-4.01893 11.33849,-2.10359 z m 11.17459,3.29992 c 0.59247,1.16226 -0.48546,3.22031 -2.58803,4.67699 -2.01034,1.39082 -4.19505,1.52186 -5.30512,-0.65597 -0.96245,-1.88987 0.29526,-3.83008 2.58802,-4.67699 2.30996,-0.85241 4.71251,-0.5077 5.30513,0.65597 z M 651.38857,4.4976536 c -1.27075,-0.081 -2.69713,1.68078 -3.18844,4.12757 -0.46863,2.3382104 0.25876,4.3463004 2.63889,4.4978504 2.06481,0.13114 3.31677,-1.74547 3.18843,-4.1275804 -0.12927,-2.39695 -1.36814,-4.41654 -2.63888,-4.49784 z m 16.77565,4.0564 c 0.8776,1.02134 0.29995,3.3454704 -1.4515,5.3177204 -1.67458,1.8839 -3.83126,2.549 -5.47432,0.63674 -1.42599,-1.65845 -0.63942,-3.9093 1.45165,-5.3163004 2.10481,-1.41781 4.59734,-1.65888 5.47417,-0.63816 z m -8.0835,-6.37553 c -1.27244,-0.43831 -3.2197,0.9568 -4.40499,3.31296 -1.13295,2.25209 -0.95404,4.50186 1.42945,5.3226004 2.06678,0.71261 3.86858,-0.8497304 4.40436,-3.3121904 0.54013,-2.48074 -0.15637,-4.88507 -1.42882,-5.32337 z"
     id="path1-8-5-89-4-7-61-9"
     style="fill:#e7e3e0;fill-opacity:1" />
</svg>
